<svg xmlns="http://www.w3.org/2000/svg" viewBox="0 0 736 363" width="736" height="363"><defs><marker orient="auto" overflow="visible" id="a" stroke-miterlimit="10" viewBox="-1 -5 10 10" markerWidth="10" markerHeight="10" color="#616161"><path d="M8 0H0m4-4l4 4-4 4" fill="none" stroke="currentColor"/></marker><clipPath id="b"><path d="M428.88 127h143v56h-143z"/></clipPath><clipPath id="c"><path d="M136.25 122.222h143v56h-143z"/></clipPath><clipPath id="d"><path d="M428.88 203h141.6v56h-141.6z"/></clipPath></defs><g fill="none"><title>Analytics hybrid Diag</title><path fill="#fff" d="M0 0h736v363H0z"/><title>Layer 1</title><title>zone external - purple</title><path fill="#ede7f7" d="M114 72h187.5v133.992H114z"/><text transform="translate(124 87)" fill="#757575"><tspan font-family="Roboto, Arial, sans-serif" font-size="12" font-weight="400" x="0" y="11">Private computing environment</tspan></text><title>GCP Zone</title><path fill="#eaedef" d="M394.68 72h209.56v219H394.68z"/><title>Page-1</title><title>Shape</title><path d="M423.488 103.03l-2.148 3.733h-5.625a1.4 1.4 0 0 1-1.215-.704l-4.55-7.933a1.401 1.401 0 0 1 0-1.392l1.732-3.018 2.137 3.713 3.222 5.6z" fill="#fbbc05"/><title>Shape</title><path d="M430.58 98.126l-4.55 7.934a1.4 1.4 0 0 1-1.215.704h-3.476l2.147-3.734 3.225-5.6-3.225-5.6h4.28l2.812 4.904c.25.43.25.961.001 1.392z" fill="#ea4335"/><title>Shape</title><path d="M427.767 91.83H417.04l-3.222 5.6-2.137-3.715L414.5 88.8a1.4 1.4 0 0 1 1.215-.704h9.1c.502 0 .966.269 1.216.704z" fill="#4285f4"/><title>Shape</title><title>Oval</title><circle cx="420.265" cy="97.429" r="2.801" fill="#fff"/><title>GCP logo</title><title>Fill-3</title><path d="M489.363 97.734c0-3.23 2.441-5.671 5.64-5.671 1.639 0 3.019.652 3.99 1.774l-.971.94c-.758-.94-1.775-1.38-3.018-1.38-2.29 0-4.216 1.668-4.216 4.337 0 2.67 1.926 4.337 4.216 4.337 1.365 0 2.517-.636 3.336-1.577l.97.97c-.955 1.138-2.486 1.942-4.306 1.942-3.2 0-5.641-2.442-5.641-5.672" fill="#757575"/><title>Fill-5</title><path fill="#757575" d="M500.402 92.306h1.395v10.858h-1.395z"/><title>Fill-7</title><path d="M509.09 99.448c0-1.698-1.182-2.684-2.426-2.684-1.243 0-2.426.986-2.426 2.684 0 1.699 1.183 2.684 2.426 2.684 1.244 0 2.427-.985 2.427-2.684m1.395 0c0 2.26-1.593 3.958-3.822 3.958s-3.821-1.699-3.821-3.958c0-2.26 1.592-3.958 3.821-3.958 2.23 0 3.822 1.699 3.822 3.958" fill="#757575"/><title>Fill-8</title><path d="M516.794 103.163v-1.03h-.06c-.41.681-1.336 1.273-2.351 1.273-1.911 0-2.836-1.29-2.836-3.124v-4.55h1.395v4.323c0 1.547.773 2.077 1.835 2.077 1.213 0 1.956-1.168 1.956-2.305v-4.094h1.395v7.43z" fill="#757575"/><title>Fill-9</title><path d="M525.376 99.448c0-1.698-1.122-2.684-2.366-2.684-1.243 0-2.365 1.016-2.365 2.684 0 1.668 1.122 2.684 2.365 2.684 1.244 0 2.366-.985 2.366-2.684m-6.126 0c0-2.275 1.652-3.958 3.533-3.958 1.183 0 2.108.591 2.532 1.274h.061l-.061-1.03v-3.428h1.395v10.857h-1.334v-1.031h-.061c-.424.682-1.349 1.274-2.532 1.274-1.88 0-3.533-1.683-3.533-3.958" fill="#757575"/><title>Fill-10</title><path d="M534.246 97.431c1.244 0 1.941-1.03 1.941-1.895 0-.864-.697-1.896-1.94-1.896h-2.336v3.791zm-3.73 5.732V92.306h3.7c1.804 0 3.396 1.334 3.396 3.23 0 1.895-1.592 3.23-3.396 3.23h-2.305v4.397z" fill="#757575"/><title>Fill-11</title><path fill="#757575" d="M538.598 92.306h1.395v10.858h-1.395z"/><title>Fill-12</title><path d="M546.468 99.964s-.592-.485-1.774-.485c-1.472 0-2.048.788-2.048 1.47 0 .789.82 1.183 1.547 1.183 1.107 0 2.275-.956 2.275-2.168m-5.277.955c0-1.683 1.516-2.593 3.26-2.593 1 0 1.728.288 2.017.455v-.213c0-1.122-.895-1.804-1.941-1.804-.773 0-1.517.379-1.775 1.077l-1.273-.547c.258-.682 1.152-1.804 3.017-1.804 1.82 0 3.306 1.092 3.306 3.185v4.488h-1.334v-1.03h-.061c-.41.62-1.168 1.273-2.441 1.273-1.517 0-2.775-.94-2.775-2.487" fill="#757575"/><title>Fill-13</title><path d="M549.819 100.904v-3.898h-1.304v-1.273h1.304v-2.275h1.395v2.275h1.82v1.273h-1.82v3.792c0 .834.349 1.213 1 1.213.258 0 .44-.03.637-.122l.486 1.198c-.319.137-.652.197-1.122.197-1.563 0-2.396-.864-2.396-2.38" fill="#757575"/><title>Fill-14</title><path d="M558.886 92.442l-.485 1.198c-.182-.091-.379-.121-.637-.121-.698 0-1.243.409-1.243 1.274v.94h1.94v1.273h-1.94v6.157h-1.395v-6.157h-1.395v-1.273h1.395v-.986c0-1.516 1.076-2.502 2.638-2.502.47 0 .804.061 1.122.197" fill="#757575"/><title>Fill-15</title><path d="M565.088 99.448c0-1.698-1.182-2.684-2.426-2.684-1.244 0-2.426.986-2.426 2.684 0 1.699 1.182 2.684 2.426 2.684 1.244 0 2.426-.985 2.426-2.684m1.396 0c0 2.26-1.593 3.958-3.822 3.958-2.23 0-3.822-1.699-3.822-3.958 0-2.26 1.593-3.958 3.822-3.958s3.822 1.699 3.822 3.958" fill="#757575"/><title>Fill-16</title><path d="M567.605 103.163v-7.43h1.334v1.213H569c.303-.849 1.38-1.395 2.154-1.395.454 0 .758.06 1.046.182l-.53 1.304c-.198-.076-.44-.106-.744-.106-.956 0-1.926.803-1.926 2.169v4.063z" fill="#757575"/><title>Fill-17</title><path d="M572.958 95.733h1.334v1.03h.06c.426-.712 1.411-1.273 2.29-1.273 1.198 0 1.972.546 2.351 1.425a3.023 3.023 0 0 1 2.593-1.425c1.82 0 2.654 1.29 2.654 3.124v4.55h-1.395v-4.337c0-1.547-.592-2.063-1.653-2.063-1.138 0-1.896 1.152-1.896 2.29v4.11h-1.395v-4.337c0-1.547-.591-2.063-1.653-2.063-1.137 0-1.896 1.152-1.896 2.29v4.11h-1.394z" fill="#757575"/><title>Fill-18</title><path d="M436.775 97.189c0-3.428 2.881-6.218 6.309-6.218 1.895 0 3.245.743 4.26 1.714l-1.197 1.198c-.728-.682-1.714-1.213-3.063-1.213-2.502 0-4.459 2.016-4.459 4.519 0 2.502 1.957 4.519 4.459 4.519 1.622 0 2.547-.652 3.138-1.244.486-.485.805-1.183.926-2.138h-4.064v-1.698h5.716c.061.303.091.667.091 1.061 0 1.274-.348 2.85-1.47 3.973-1.092 1.137-2.487 1.744-4.337 1.744-3.428 0-6.309-2.79-6.309-6.217" fill="#757575"/><title>Fill-19</title><path d="M453.512 101.829c-1.214 0-2.26-1.001-2.26-2.427 0-1.44 1.046-2.426 2.26-2.426 1.213 0 2.259.986 2.259 2.426 0 1.426-1.046 2.427-2.26 2.427m0-6.43c-2.214 0-4.018 1.683-4.018 4.003 0 2.305 1.804 4.004 4.019 4.004 2.213 0 4.018-1.699 4.018-4.004 0-2.32-1.805-4.003-4.018-4.003" fill="#757575"/><g><title>Fill-20</title><path d="M462.278 101.829c-1.213 0-2.26-1.001-2.26-2.427 0-1.44 1.047-2.426 2.26-2.426 1.213 0 2.26.986 2.26 2.426 0 1.426-1.047 2.427-2.26 2.427m0-6.43c-2.214 0-4.019 1.683-4.019 4.003 0 2.305 1.805 4.004 4.02 4.004 2.213 0 4.018-1.699 4.018-4.004 0-2.32-1.805-4.003-4.019-4.003" fill="#757575"/></g><g><title>Fill-21</title><path d="M471.021 101.829c-1.212 0-2.229-1.016-2.229-2.411 0-1.41 1.017-2.442 2.23-2.442 1.197 0 2.137 1.031 2.137 2.442 0 1.395-.94 2.41-2.138 2.41zm2.018-6.187v.652h-.061c-.395-.47-1.153-.895-2.108-.895-2.002 0-3.837 1.759-3.837 4.019 0 2.244 1.835 3.988 3.837 3.988.955 0 1.713-.425 2.108-.91h.06v.576c0 1.532-.819 2.35-2.138 2.35-1.077 0-1.744-.772-2.016-1.425l-1.533.637c.44 1.062 1.608 2.366 3.549 2.366 2.063 0 3.806-1.213 3.806-4.17v-7.188z" fill="#757575"/></g><g><title>Fill-22</title><path fill="#757575" d="M475.92 91.396h1.759v11.767h-1.759z"/></g><g><title>Fill-23</title><path d="M482.364 96.946c.698 0 1.29.349 1.486.85l-3.578 1.485c-.046-1.547 1.197-2.335 2.092-2.335m.137 4.883c-.895 0-1.532-.41-1.941-1.213l5.353-2.214-.182-.455c-.334-.895-1.35-2.548-3.427-2.548-2.063 0-3.776 1.623-3.776 4.003 0 2.245 1.698 4.004 3.973 4.004 1.835 0 2.896-1.122 3.336-1.774l-1.365-.91c-.455.667-1.077 1.107-1.971 1.107" fill="#757575"/></g><g><text transform="translate(310.09 135.5)" fill="#757575"><tspan font-family="Roboto, Arial, sans-serif" font-size="12" font-weight="400" x="0" y="11">Load raw data</tspan></text></g><g><title>path arrow - grey primary</title><path marker-end="url(#a)" stroke="#616161" stroke-linecap="round" stroke-linejoin="round" d="M278.714 154.5h141.185"/></g><g><title>Cloud Storage</title><path fill="#fff" d="M428.88 127h143v56h-143z"/><path stroke="#dfdfdf" stroke-linecap="round" stroke-linejoin="round" stroke-width="2" clip-path="url(#b)" d="M428.88 127h143v56h-143z"/><text transform="translate(479.88 148)" fill="#212121"><tspan font-family="Roboto, Arial, sans-serif" font-size="12" font-weight="400" x="0" y="11">Cloud Storage</tspan></text><title>Cloud Storage</title><title>Fill-1</title><path d="M472.546 153.714l-5.754-10.006c-.461-.8-1.297-1.286-2.157-1.286h-11.509c-.922 0-1.727.54-2.158 1.285l-5.754 9.986a2.51 2.51 0 0 0 0 2.502l5.754 10.052c.461.798 1.297 1.331 2.158 1.331h11.508c.922 0 1.727-.581 2.158-1.326l5.754-10.006a2.566 2.566 0 0 0 0-2.532" fill="#4285f4"/><title>Fill-4</title><path d="M463.58 152.058l-7.913.727-1.533 1.529 1.303 1.304-1.29 2.29 9.669 9.67h.818c.922 0 1.727-.581 2.158-1.326l4.01-6.973z" fill="#000" fill-opacity=".07"/><title>Fill-6</title><path d="M462.004 153.74a.543.543 0 0 1 0-1.083.542.542 0 1 1 0 1.084m1.404-1.744h-9.064a.266.266 0 0 0-.266.265l.001 1.874c0 .146.12.265.265.265h9.064c.146 0 .265-.12.265-.265v-1.874a.266.266 0 0 0-.265-.265" fill="#fff"/><g><title>Fill-8</title><path d="M462.004 157.343a.541.541 0 1 1-.001-1.085.541.541 0 0 1 .001 1.085m1.404-1.744h-9.064a.266.266 0 0 0-.266.266l.001 1.873c0 .146.12.265.265.265h9.064c.146 0 .265-.12.265-.265v-1.874a.266.266 0 0 0-.265-.266" fill="#fff"/></g></g><g><title>Stroke-21</title><path stroke="#fff" stroke-linejoin="round" stroke-width="1.732" d="M140.512 181.133h134.476"/><title>Stroke-22</title><path stroke="#fff" stroke-linejoin="round" stroke-width="1.601" d="M145.6 185.992h124.3"/><path fill="#fff" d="M136.25 122.222h143v56h-143z"/><path stroke="#dfdfdf" stroke-linecap="round" stroke-linejoin="round" stroke-width="2" clip-path="url(#c)" d="M136.25 122.222h143v56h-143z"/><text transform="translate(171.25 136.222)" fill="#212121"><tspan font-family="Roboto, Arial, sans-serif" font-size="12" font-weight="400" x=".233" y="11">Transactional</tspan> <tspan font-family="Roboto, Arial, sans-serif" font-size="12" font-weight="400" x="11.973" y="25">workload</tspan></text></g><g><text transform="translate(280.746 216.5)" fill="#757575"><tspan font-family="Roboto, Arial, sans-serif" font-size="12" font-weight="400" x="0" y="11">Feedback results</tspan></text></g><g><title>Stroke-21</title><path stroke="#fff" stroke-linejoin="round" stroke-width="1.732" d="M433.101 261.911h133.158"/><title>Stroke-22</title><path stroke="#fff" stroke-linejoin="round" stroke-width="1.601" d="M438.139 266.77h123.083"/><path fill="#fff" d="M428.88 203h141.6v56h-141.6z"/><path stroke="#dfdfdf" stroke-linecap="round" stroke-linejoin="round" stroke-width="2" clip-path="url(#d)" d="M428.88 203h141.6v56h-141.6z"/><text transform="translate(449.88 224)" fill="#212121"><tspan font-family="Roboto, Arial, sans-serif" font-size="12" font-weight="400" x=".18" y="11">Analytics workload</tspan></text></g><g><path d="M349.852 154.465v.186l-.023-.022h6.365a.022.022 0 0 1 0 .045h-6.365a.022.022 0 0 1-.022-.023v-.186a.022.022 0 1 1 .045 0zm6.702.209h-.36v-.045h.36zm-.196.141l.18-.18v.032l-.18-.18.032-.032.18.18.015.016-.015.016-.18.18z" fill="#616161"/></g><g><path d="M208.654 186.345v-.238a.5.5 0 0 0-1 0v.238a.5.5 0 1 0 1 0zm-1-8.238v8h1v-8zm-3.147 4.354l4-4h-.707l4 4 .707-.707-4-4-.353-.354-.354.354-4 4z" fill="#616161"/></g><g><title>Page-1</title><title>Shape</title><path d="M428.069 235.761a.53.53 0 0 1 .538.52.53.53 0 0 1-.538.519h-1.075a.529.529 0 0 1-.538-.52c0-.286.24-.519.538-.519zm-5.377 0a.53.53 0 0 1 .538.52c0 .286-.24.519-.538.519h-1.075a.529.529 0 0 1-.538-.52.53.53 0 0 1 .538-.519zm-5.376 0c.297 0 .537.233.537.52 0 .286-.24.519-.537.519h-1.075a.529.529 0 0 1-.538-.52c0-.286.24-.519.538-.519zm-5.377 0a.53.53 0 0 1 .538.52c0 .286-.24.519-.538.519h-1.075a.529.529 0 0 1-.538-.52.53.53 0 0 1 .538-.519zm-5.376 0c.297 0 .537.233.537.52 0 .286-.24.519-.537.519h-1.076a.529.529 0 0 1-.537-.52c0-.286.24-.519.537-.519zm-5.377 0a.53.53 0 0 1 .538.52.53.53 0 0 1-.538.519h-1.075a.529.529 0 0 1-.538-.52c0-.286.24-.519.538-.519zm-5.376 0a.53.53 0 0 1 .537.52c0 .286-.24.519-.537.519h-1.076a.529.529 0 0 1-.537-.52c0-.286.24-.519.537-.519zm-5.377 0a.53.53 0 0 1 .538.52.53.53 0 0 1-.538.519h-1.075a.529.529 0 0 1-.538-.52c0-.286.24-.519.538-.519zm-5.377 0a.53.53 0 0 1 .538.52c0 .286-.24.519-.538.519h-1.075a.529.529 0 0 1-.538-.52.53.53 0 0 1 .538-.519zm-5.376 0c.297 0 .537.233.537.52 0 .286-.24.519-.537.519h-1.076a.529.529 0 0 1-.537-.52c0-.286.24-.519.537-.519zm-5.377 0a.53.53 0 0 1 .538.52c0 .286-.24.519-.538.519h-1.075a.529.529 0 0 1-.538-.52.53.53 0 0 1 .538-.519zm-5.376 0c.297 0 .537.233.537.52 0 .286-.24.519-.537.519h-1.076a.529.529 0 0 1-.537-.52c0-.286.24-.519.537-.519zm-5.377 0a.53.53 0 0 1 .538.52c0 .286-.24.519-.538.519h-1.075a.529.529 0 0 1-.538-.52c0-.286.24-.519.538-.519zm-5.376 0c.297 0 .537.233.537.52 0 .286-.24.519-.537.519h-1.076a.529.529 0 0 1-.537-.52c0-.286.24-.519.537-.519zm-5.377 0a.53.53 0 0 1 .538.52.53.53 0 0 1-.538.519h-1.075a.529.529 0 0 1-.538-.52c0-.286.24-.519.538-.519zm-5.377 0a.53.53 0 0 1 .538.52c0 .286-.24.519-.538.519h-1.075a.529.529 0 0 1-.538-.52.53.53 0 0 1 .538-.519zm-5.376 0a.53.53 0 0 1 .538.52.53.53 0 0 1-.538.519h-1.075a.529.529 0 0 1-.538-.52c0-.286.24-.519.538-.519zm-5.377 0a.53.53 0 0 1 .538.52c0 .286-.24.519-.538.519h-1.075a.529.529 0 0 1-.538-.52.53.53 0 0 1 .538-.519zm-5.376 0c.297 0 .537.233.537.52 0 .286-.24.519-.537.519h-1.076a.529.529 0 0 1-.537-.52c0-.286.24-.519.537-.519zm-5.377 0a.53.53 0 0 1 .538.52c0 .286-.24.519-.538.519h-1.075a.529.529 0 0 1-.538-.52c0-.286.24-.519.538-.519zm-5.376 0c.297 0 .537.233.537.52 0 .286-.24.519-.537.519h-1.076a.529.529 0 0 1-.537-.52c0-.286.24-.519.537-.519zm-5.377 0a.53.53 0 0 1 .538.52.53.53 0 0 1-.538.519h-1.075a.529.529 0 0 1-.538-.52c0-.286.24-.519.538-.519zm-5.377 0a.53.53 0 0 1 .538.52c0 .286-.24.519-.538.519h-1.075a.529.529 0 0 1-.538-.52.53.53 0 0 1 .538-.519zm-5.376 0a.53.53 0 0 1 .538.52.53.53 0 0 1-.538.519h-1.075a.529.529 0 0 1-.538-.52c0-.286.24-.519.538-.519zm-5.377 0a.53.53 0 0 1 .538.52c0 .286-.24.519-.538.519h-1.075a.529.529 0 0 1-.538-.52.53.53 0 0 1 .538-.519zm-5.376 0c.297 0 .537.233.537.52 0 .286-.24.519-.537.519h-1.076a.529.529 0 0 1-.537-.52c0-.286.24-.519.537-.519zm-5.377 0a.53.53 0 0 1 .538.52c0 .286-.24.519-.538.519h-1.075a.529.529 0 0 1-.538-.52.53.53 0 0 1 .538-.519zm-5.376 0c.297 0 .537.233.537.52 0 .286-.24.519-.537.519h-1.076a.529.529 0 0 1-.537-.52c0-.286.24-.519.537-.519zm-5.377 0a.53.53 0 0 1 .538.52.53.53 0 0 1-.538.519h-1.075a.529.529 0 0 1-.538-.52c0-.286.24-.519.538-.519zm-5.376 0a.53.53 0 0 1 .537.52c0 .286-.24.519-.537.519h-1.076a.529.529 0 0 1-.537-.52c0-.286.24-.519.537-.519zm-5.377 0a.53.53 0 0 1 .538.52.53.53 0 0 1-.538.519h-1.075a.529.529 0 0 1-.538-.52c0-.286.24-.519.538-.519zm-5.377 0a.53.53 0 0 1 .538.52c0 .286-.24.519-.538.519h-1.075a.529.529 0 0 1-.538-.52.53.53 0 0 1 .538-.519zm-5.376 0a.53.53 0 0 1 .538.52.53.53 0 0 1-.538.519h-1.075a.529.529 0 0 1-.538-.52c0-.286.24-.519.538-.519zm-5.377 0a.53.53 0 0 1 .538.52c0 .286-.24.519-.538.519h-1.075a.529.529 0 0 1-.538-.52.53.53 0 0 1 .538-.519zm-5.376 0c.297 0 .537.233.537.52 0 .286-.24.519-.537.519h-1.076a.529.529 0 0 1-.537-.52c0-.286.24-.519.537-.519zm-5.377 0a.53.53 0 0 1 .538.52c0 .286-.24.519-.538.519h-1.075a.529.529 0 0 1-.538-.52c0-.286.24-.519.538-.519zm-5.376 0c.297 0 .537.233.537.52 0 .286-.24.519-.537.519h-1.076a.529.529 0 0 1-.537-.52c0-.286.24-.519.537-.519zm-5.377 0a.53.53 0 0 1 .538.52.53.53 0 0 1-.538.519h-1.075a.529.529 0 0 1-.538-.52c0-.286.24-.519.538-.519zm-5.377 0a.53.53 0 0 1 .538.52c0 .286-.24.519-.538.519h-1.075a.529.529 0 0 1-.538-.52.53.53 0 0 1 .538-.519zm-5.376 0a.53.53 0 0 1 .538.52.53.53 0 0 1-.538.519h-1.075a.529.529 0 0 1-.538-.52c0-.286.24-.519.538-.519zm-5.377 0a.53.53 0 0 1 .538.52c0 .286-.24.519-.538.519h-1.075a.529.529 0 0 1-.538-.52.53.53 0 0 1 .538-.519zm-4.375.072c0 .286-.24.519-.538.519a.529.529 0 0 1-.537-.52v-1.038c0-.287.24-.52.537-.52a.53.53 0 0 1 .538.52zm0-5.195c0 .287-.24.52-.538.52a.529.529 0 0 1-.537-.52v-1.04c0-.286.24-.519.537-.519a.53.53 0 0 1 .538.52zm0-5.195c0 .287-.24.52-.538.52a.529.529 0 0 1-.537-.52v-1.04c0-.286.24-.519.537-.519a.53.53 0 0 1 .538.52zm0-5.195c0 .287-.24.52-.538.52a.529.529 0 0 1-.537-.52v-1.04c0-.286.24-.519.537-.519a.53.53 0 0 1 .538.52zm0-5.195c0 .287-.24.52-.538.52a.529.529 0 0 1-.537-.52v-1.04c0-.286.24-.519.537-.519a.53.53 0 0 1 .538.52zm0-5.195c0 .287-.24.52-.538.52a.529.529 0 0 1-.537-.52v-1.04c0-.286.24-.519.537-.519a.53.53 0 0 1 .538.52zm0-5.195c0 .287-.24.52-.538.52a.529.529 0 0 1-.537-.52v-1.04c0-.286.24-.519.537-.519a.53.53 0 0 1 .538.52zm0-5.195c0 .287-.24.52-.538.52a.529.529 0 0 1-.537-.52v-1.039c0-.287.24-.52.537-.52a.53.53 0 0 1 .538.52zm0-5.195c0 .287-.24.52-.538.52a.529.529 0 0 1-.537-.52v-1.039c0-.287.24-.52.537-.52a.53.53 0 0 1 .538.52zm0-5.195c0 .287-.24.52-.538.52a.529.529 0 0 1-.537-.52v-1.039c0-.287.24-.52.537-.52a.53.53 0 0 1 .538.52z" fill="#616161"/></g><g><path d="M278.714 155H419.9a.5.5 0 0 0 0-1H278.714a.5.5 0 1 0 0 1zm149.185-1h-8v1h8zm-4.353-3.146l4 4v-.708l-4 4 .707.708 4-4 .354-.354-.354-.354-4-4z" fill="#616161"/></g></g></svg>